# xmcd
#
# Track frame offsets: 
#        150
#        15723
#        44680
#        73501
#        89232
#        114357
#        138767
#        161322
#        184185
#        210925
#
# Disc length: 3133 seconds
#
# Revision: 0
# Processed by: cddbd v1.5.2PL0 Copyright (c) Steve Scherf et al.
# Submitted via: ExactAudioCopy v0.95b4
#
DISCID=830c3b0a
DTITLE=Teddy Pendergrass - S. O. U. L. Teddy Pendergrass
DYEAR=2011
DGENRE=Soul
TTITLE0=If You Don't Know Me By Now
TTITLE1=Bad Luck
TTITLE2=The Love I Lost
TTITLE3=Satisfaction Guaranteed (Or Take Your Love Back)
TTITLE4=Feel The Fire
TTITLE5=Get Up, Get Down, Get Funky, Get Loose
TTITLE6=Love T.K.O.
TTITLE7=Can't We Try
TTITLE8=Turn Off The Lights
TTITLE9=You're My Latest, My Greatest Inspiration
EXTD=
EXTT0=
EXTT1=
EXTT2=
EXTT3=
EXTT4=
EXTT5=
EXTT6=
EXTT7=
EXTT8=
EXTT9=
PLAYORDER=
